<svg width="15" height="29" viewBox="0 0 15 29" fill="none" xmlns="http://www.w3.org/2000/svg">
<path d="M12.66 29.0001C12.3612 29.0011 12.066 28.9351 11.796 28.8071C11.5261 28.679 11.2882 28.4921 11.1 28.2601L1.43999 16.2601C1.14583 15.9022 0.985016 15.4533 0.985016 14.9901C0.985016 14.5268 1.14583 14.0779 1.43999 13.7201L11.44 1.72006C11.7795 1.31163 12.2673 1.05478 12.7961 1.00602C13.325 0.957262 13.8516 1.12059 14.26 1.46006C14.6684 1.79954 14.9253 2.28736 14.974 2.81622C15.0228 3.34507 14.8595 3.87163 14.52 4.28006L5.57999 15.0001L14.22 25.7201C14.4646 26.0136 14.6199 26.3711 14.6677 26.7502C14.7154 27.1293 14.6536 27.5142 14.4895 27.8592C14.3254 28.2043 14.0659 28.4951 13.7416 28.6973C13.4174 28.8995 13.0421 29.0045 12.66 29.0001Z" fill="#AAC945"/>
</svg>
