<svg width="24" height="21" viewBox="0 0 24 21" fill="none" xmlns="http://www.w3.org/2000/svg">
<path d="M21.7778 3.61111H18L17.1 1.08889C17.0378 0.9163 16.9239 0.767116 16.7737 0.661716C16.6236 0.556315 16.4446 0.499838 16.2611 0.5H7.73889C7.36389 0.5 7.02778 0.736111 6.90278 1.08889L6 3.61111H2.22222C0.994444 3.61111 0 4.60556 0 5.83333V18.5C0 19.7278 0.994444 20.7222 2.22222 20.7222H21.7778C23.0056 20.7222 24 19.7278 24 18.5V5.83333C24 4.60556 23.0056 3.61111 21.7778 3.61111ZM12 16.2778C9.54444 16.2778 7.55556 14.2889 7.55556 11.8333C7.55556 9.37778 9.54444 7.38889 12 7.38889C14.4556 7.38889 16.4444 9.37778 16.4444 11.8333C16.4444 14.2889 14.4556 16.2778 12 16.2778ZM9.33333 11.8333C9.33333 12.5406 9.61428 13.2189 10.1144 13.719C10.6145 14.219 11.2928 14.5 12 14.5C12.7072 14.5 13.3855 14.219 13.8856 13.719C14.3857 13.2189 14.6667 12.5406 14.6667 11.8333C14.6667 11.1261 14.3857 10.4478 13.8856 9.94771C13.3855 9.44762 12.7072 9.16667 12 9.16667C11.2928 9.16667 10.6145 9.44762 10.1144 9.94771C9.61428 10.4478 9.33333 11.1261 9.33333 11.8333Z" fill="white"/>
</svg>
