<svg width="16" height="16" viewBox="0 0 16 16" fill="none" xmlns="http://www.w3.org/2000/svg">
<path d="M5.10599 14.4564L12.6062 6.95628L9.04372 3.39384L1.54355 10.894C1.4403 10.9974 1.36695 11.1268 1.33129 11.2685L0.5 15.5L4.7307 14.6687C4.87275 14.6332 5.00269 14.5598 5.10599 14.4564ZM15.0274 4.53504C15.33 4.23234 15.5 3.82185 15.5 3.39384C15.5 2.96582 15.33 2.55533 15.0274 2.25263L13.7474 0.972603C13.4447 0.669995 13.0342 0.5 12.6062 0.5C12.1781 0.5 11.7677 0.669995 11.465 0.972603L10.1849 2.25263L13.7474 5.81507L15.0274 4.53504Z" fill="#CD2078"/>
</svg>
