<svg width="24" height="24" viewBox="0 0 24 24" fill="none" xmlns="http://www.w3.org/2000/svg">
<path d="M11.9999 0.333252C9.69248 0.333252 7.43684 1.01749 5.51827 2.29944C3.5997 3.58139 2.10435 5.40347 1.22133 7.53528C0.338307 9.66708 0.107268 12.0129 0.557429 14.276C1.00759 16.5391 2.11873 18.6179 3.75034 20.2495C5.38196 21.8811 7.46076 22.9923 9.72387 23.4424C11.987 23.8926 14.3328 23.6615 16.4646 22.7785C18.5964 21.8955 20.4185 20.4001 21.7004 18.4816C22.9823 16.563 23.6666 14.3074 23.6666 11.9999C23.6666 10.4678 23.3648 8.95074 22.7785 7.53528C22.1922 6.11981 21.3329 4.83369 20.2495 3.75034C19.1662 2.66699 17.88 1.80763 16.4646 1.22132C15.0491 0.635019 13.532 0.333252 11.9999 0.333252ZM13.1666 16.6666C13.1666 16.976 13.0437 17.2728 12.8249 17.4915C12.6061 17.7103 12.3093 17.8333 11.9999 17.8333C11.6905 17.8333 11.3938 17.7103 11.175 17.4915C10.9562 17.2728 10.8333 16.976 10.8333 16.6666V10.8333C10.8333 10.5238 10.9562 10.2271 11.175 10.0083C11.3938 9.7895 11.6905 9.66658 11.9999 9.66658C12.3093 9.66658 12.6061 9.7895 12.8249 10.0083C13.0437 10.2271 13.1666 10.5238 13.1666 10.8333V16.6666ZM11.9999 8.49992C11.7692 8.49992 11.5436 8.43149 11.3518 8.3033C11.1599 8.1751 11.0104 7.9929 10.9221 7.77972C10.8338 7.56654 10.8107 7.33196 10.8557 7.10565C10.9007 6.87934 11.0118 6.67146 11.175 6.50829C11.3381 6.34513 11.546 6.23402 11.7723 6.189C11.9986 6.14399 12.2332 6.16709 12.4464 6.25539C12.6596 6.34369 12.8418 6.49323 12.97 6.68509C13.0982 6.87694 13.1666 7.10251 13.1666 7.33325C13.1666 7.64267 13.0437 7.93942 12.8249 8.15821C12.6061 8.377 12.3093 8.49992 11.9999 8.49992Z" fill="#B7BFC6"/>
</svg>
