<svg width="16" height="20" viewBox="0 0 16 20" fill="none" xmlns="http://www.w3.org/2000/svg">
<path fill-rule="evenodd" clip-rule="evenodd" d="M7.291 19.7058L8 18.9998L7.291 19.7058ZM8 18.9998L8.708 19.7058C8.61509 19.799 8.50468 19.873 8.38309 19.9235C8.26151 19.974 8.13115 20 7.9995 20C7.86785 20 7.73749 19.974 7.61591 19.9235C7.49432 19.873 7.38391 19.799 7.291 19.7058L7.285 19.6988L7.268 19.6818L7.206 19.6188C6.85349 19.2556 6.50678 18.8869 6.166 18.5128C5.3104 17.5752 4.49113 16.6052 3.71 15.6048C2.818 14.4548 1.906 13.1548 1.213 11.8708C0.535 10.6118 0 9.24776 0 7.99976C0 3.46076 3.592 -0.000244141 8 -0.000244141C12.408 -0.000244141 16 3.46076 16 7.99976C16 9.24776 15.465 10.6118 14.787 11.8698C14.094 13.1558 13.183 14.4548 12.29 15.6048C11.1974 17.0044 10.0304 18.3443 8.794 19.6188L8.732 19.6818L8.715 19.6988L8.709 19.7048L8 18.9998ZM8 10.9998C8.79565 10.9998 9.55871 10.6837 10.1213 10.1211C10.6839 9.55847 11 8.79541 11 7.99976C11 7.20411 10.6839 6.44104 10.1213 5.87844C9.55871 5.31583 8.79565 4.99976 8 4.99976C7.20435 4.99976 6.44129 5.31583 5.87868 5.87844C5.31607 6.44104 5 7.20411 5 7.99976C5 8.79541 5.31607 9.55847 5.87868 10.1211C6.44129 10.6837 7.20435 10.9998 8 10.9998Z" fill="#AAC945"/>
</svg>
