<svg width="75" height="77" viewBox="0 0 75 77" fill="none" xmlns="http://www.w3.org/2000/svg">
<g filter="url(#filter0_d_737_1739)">
<path fill-rule="evenodd" clip-rule="evenodd" d="M38.375 0C19.3906 0 4 15.3906 4 34.375C4 53.3594 19.3906 68.75 38.375 68.75C57.3594 68.75 72.75 53.3594 72.75 34.375C72.75 15.3906 57.3594 0 38.375 0ZM41.5 46.875C41.5 47.7038 41.1708 48.4987 40.5847 49.0847C39.9987 49.6708 39.2038 50 38.375 50C37.5462 50 36.7513 49.6708 36.1653 49.0847C35.5792 48.4987 35.25 47.7038 35.25 46.875V37.5H25.875C25.0462 37.5 24.2513 37.1708 23.6653 36.5847C23.0792 35.9987 22.75 35.2038 22.75 34.375C22.75 33.5462 23.0792 32.7513 23.6653 32.1653C24.2513 31.5792 25.0462 31.25 25.875 31.25H35.25V21.875C35.25 21.0462 35.5792 20.2513 36.1653 19.6653C36.7513 19.0792 37.5462 18.75 38.375 18.75C39.2038 18.75 39.9987 19.0792 40.5847 19.6653C41.1708 20.2513 41.5 21.0462 41.5 21.875V31.25H50.875C51.7038 31.25 52.4987 31.5792 53.0847 32.1653C53.6708 32.7513 54 33.5462 54 34.375C54 35.2038 53.6708 35.9987 53.0847 36.5847C52.4987 37.1708 51.7038 37.5 50.875 37.5H41.5V46.875Z" fill="#AAC945"/>
</g>
<defs>
<filter id="filter0_d_737_1739" x="0" y="0" width="76.75" height="76.75" filterUnits="userSpaceOnUse" color-interpolation-filters="sRGB">
<feFlood flood-opacity="0" result="BackgroundImageFix"/>
<feColorMatrix in="SourceAlpha" type="matrix" values="0 0 0 0 0 0 0 0 0 0 0 0 0 0 0 0 0 0 127 0" result="hardAlpha"/>
<feOffset dy="4"/>
<feGaussianBlur stdDeviation="2"/>
<feComposite in2="hardAlpha" operator="out"/>
<feColorMatrix type="matrix" values="0 0 0 0 0 0 0 0 0 0 0 0 0 0 0 0 0 0 0.1 0"/>
<feBlend mode="normal" in2="BackgroundImageFix" result="effect1_dropShadow_737_1739"/>
<feBlend mode="normal" in="SourceGraphic" in2="effect1_dropShadow_737_1739" result="shape"/>
</filter>
</defs>
</svg>
