<svg width="31" height="33" viewBox="0 0 31 33" fill="none" xmlns="http://www.w3.org/2000/svg">
<path d="M15.5181 12.1134C14.4377 12.1134 13.426 12.5325 12.66 13.2985C11.8976 14.0645 11.4748 15.0763 11.4748 16.1566C11.4748 17.237 11.8976 18.2487 12.66 19.0147C13.426 19.7771 14.4377 20.1999 15.5181 20.1999C16.5984 20.1999 17.6102 19.7771 18.3762 19.0147C19.1386 18.2487 19.5613 17.237 19.5613 16.1566C19.5613 15.0763 19.1386 14.0645 18.3762 13.2985C18.002 12.9215 17.5567 12.6226 17.0661 12.4191C16.5754 12.2157 16.0492 12.1118 15.5181 12.1134ZM30.4156 20.6227L28.0525 18.6028C28.1646 17.9163 28.2224 17.2153 28.2224 16.518C28.2224 15.8206 28.1646 15.116 28.0525 14.4331L30.4156 12.4133C30.5941 12.2605 30.7219 12.0569 30.7819 11.8297C30.842 11.6025 30.8314 11.3625 30.7517 11.1414L30.7191 11.0475C30.0688 9.22886 29.0943 7.54314 27.843 6.07197L27.7779 5.99609C27.626 5.81742 27.4235 5.68899 27.1971 5.62771C26.9706 5.56643 26.731 5.57519 26.5097 5.65283L23.5757 6.69707C22.4917 5.8082 21.2849 5.10723 19.9769 4.61943L19.4096 1.55176C19.3668 1.32066 19.2547 1.10806 19.0882 0.942189C18.9216 0.776323 18.7086 0.665047 18.4773 0.623145L18.3798 0.605078C16.5009 0.26543 14.5208 0.26543 12.6419 0.605078L12.5443 0.623145C12.3131 0.665047 12.1 0.776323 11.9335 0.942189C11.767 1.10806 11.6549 1.32066 11.6121 1.55176L11.0412 4.63389C9.74559 5.12557 8.53864 5.82485 7.46768 6.7043L4.51201 5.65283C4.29076 5.57458 4.05093 5.5655 3.82439 5.62681C3.59785 5.68813 3.39534 5.81693 3.24375 5.99609L3.17871 6.07197C1.92957 7.54471 0.955357 9.23001 0.302541 11.0475L0.270022 11.1414C0.107424 11.5931 0.241116 12.0989 0.606057 12.4133L2.99805 14.4548C2.88604 15.1341 2.83184 15.8278 2.83184 16.5144C2.83184 17.2081 2.88604 17.9019 2.99805 18.5739L0.613283 20.6154C0.434772 20.7682 0.307009 20.9718 0.246983 21.199C0.186958 21.4262 0.197514 21.6663 0.277248 21.8873L0.309768 21.9812C0.963772 23.7987 1.92852 25.4789 3.18594 26.9567L3.25098 27.0326C3.40293 27.2113 3.60546 27.3397 3.83186 27.401C4.05826 27.4623 4.29792 27.4535 4.51924 27.3759L7.4749 26.3244C8.55166 27.2097 9.75127 27.9106 11.0484 28.3948L11.6193 31.4769C11.6621 31.708 11.7742 31.9207 11.9408 32.0865C12.1073 32.2524 12.3203 32.3637 12.5516 32.4056L12.6491 32.4236C14.5465 32.7651 16.4896 32.7651 18.387 32.4236L18.4846 32.4056C18.7158 32.3637 18.9289 32.2524 19.0954 32.0865C19.2619 31.9207 19.374 31.708 19.4168 31.4769L19.9841 28.4093C21.2921 27.9179 22.4989 27.2205 23.5829 26.3316L26.5169 27.3759C26.7382 27.4541 26.978 27.4632 27.2045 27.4019C27.4311 27.3406 27.6336 27.2118 27.7852 27.0326L27.8502 26.9567C29.1076 25.4717 30.0724 23.7987 30.7264 21.9812L30.7589 21.8873C30.9143 21.4393 30.7806 20.937 30.4156 20.6227ZM15.5181 22.5088C12.0096 22.5088 9.16592 19.6651 9.16592 16.1566C9.16592 12.6481 12.0096 9.80449 15.5181 9.80449C19.0266 9.80449 21.8702 12.6481 21.8702 16.1566C21.8702 19.6651 19.0266 22.5088 15.5181 22.5088Z" fill="#B7BFC6"/>
</svg>
