<svg width="21" height="15" viewBox="0 0 21 15" fill="none" xmlns="http://www.w3.org/2000/svg">
<path d="M10.5 0.9375C6.125 0.9375 2.38875 3.84017 0.875 7.9375C2.38875 12.0348 6.125 14.9375 10.5 14.9375C14.875 14.9375 18.6112 12.0348 20.125 7.9375C18.6112 3.84017 14.875 0.9375 10.5 0.9375ZM10.5 12.6042C8.085 12.6042 6.125 10.5135 6.125 7.9375C6.125 5.3615 8.085 3.27083 10.5 3.27083C12.915 3.27083 14.875 5.3615 14.875 7.9375C14.875 10.5135 12.915 12.6042 10.5 12.6042ZM10.5 5.1375C9.0475 5.1375 7.875 6.38817 7.875 7.9375C7.875 9.48683 9.0475 10.7375 10.5 10.7375C11.9525 10.7375 13.125 9.48683 13.125 7.9375C13.125 6.38817 11.9525 5.1375 10.5 5.1375Z" fill="#FEC32B"/>
</svg>
